<svg width="24" height="24" viewBox="0 0 24 24" fill="none" xmlns="http://www.w3.org/2000/svg">
<circle cx="12" cy="12" r="12" fill="#20C3AF"/>
<g clip-path="url(#clip0)">
<path d="M15.8721 12.311L12.983 15.2001C12.9006 15.2826 12.7907 15.3279 12.6735 15.3279C12.5561 15.3279 12.4463 15.2825 12.3638 15.2001L12.1015 14.9378C12.0191 14.8554 11.9737 14.7454 11.9737 14.6282C11.9737 14.511 12.0191 14.3973 12.1015 14.3149L13.7869 12.6258H8.43219C8.19076 12.6258 8 12.4368 8 12.1953V11.8244C8 11.5829 8.19076 11.3748 8.43219 11.3748H13.8061L12.1016 9.67622C12.0192 9.59375 11.9738 9.48676 11.9738 9.36949C11.9738 9.25235 12.0192 9.1438 12.1016 9.0614L12.3639 8.79987C12.4463 8.7174 12.5562 8.67246 12.6735 8.67246C12.7907 8.67246 12.9006 8.71798 12.9831 8.80046L15.8722 11.6895C15.9549 11.7723 16.0003 11.8827 16 12.0001C16.0003 12.1179 15.9549 12.2284 15.8721 12.311Z" fill="white"/>
</g>
<defs>
<clipPath id="clip0">
<rect width="8" height="8" fill="white" transform="matrix(1 0 0 -1 8 16)"/>
</clipPath>
</defs>
</svg>
