<svg width="12" height="12" viewBox="0 0 12 12" fill="none" xmlns="http://www.w3.org/2000/svg">
<path d="M6 0C2.69166 0 0 2.69166 0 6C0 9.30834 2.69166 12 6 12C9.30834 12 12 9.30834 12 6C12 2.69166 9.30834 0 6 0ZM9.42673 4.28027L5.10352 8.60351C5.00585 8.70117 4.87793 8.74999 4.75001 8.74999C4.62209 8.74999 4.49414 8.70117 4.3965 8.60351L2.07328 6.28027C1.97562 6.18265 1.97562 6.02435 2.07328 5.92671L2.42674 5.57323C2.52441 5.47561 2.68266 5.47561 2.78032 5.57323L4.75001 7.54296L8.71969 3.57323C8.81735 3.47562 8.9756 3.47562 9.07327 3.57323L9.42673 3.92672C9.52439 4.02436 9.52439 4.18266 9.42673 4.28027Z" fill="#20C3AF"/>
</svg>
