<svg width="48" height="48" viewBox="0 0 48 48" fill="none" xmlns="http://www.w3.org/2000/svg">
<circle cx="24" cy="24" r="22.5" fill="white" stroke="#20C3AF" stroke-width="3"/>
<path d="M15.941 22C16.5408 20.3179 17.4308 18.7627 18.5439 17.5421C18.6924 17.3793 18.8462 17.2313 19 17.0827C18.0864 16.3905 16.9703 16 15.7914 16H14.5971C14.2672 16 14 16.2712 14 16.6062V17.8185C14 19.4576 14.7424 20.9796 15.941 22Z" fill="black"/>
<path d="M33.4076 16H32.2227C31.0531 16 29.9064 16.3905 29 17.0827C29.1526 17.2313 29.3052 17.3793 29.4525 17.5421C30.5568 18.7627 31.4792 20.3179 32.0741 22C33.2635 20.9796 34 19.4576 34 17.8185V16.6062C34 16.2712 33.735 16 33.4076 16Z" fill="black"/>
<path d="M23.9806 34C27.0581 34 28.912 32.618 30 31H18C19.088 32.618 20.9031 34 23.9806 34Z" fill="black"/>
<path d="M16.8678 30H19C18.41 29.4471 18.0149 28.6516 18.0149 27.5001H17.8475C16.7613 27.5001 15.7685 26.8314 15.2827 25.773L15.0866 25.3456C14.9679 25.0864 14.6974 24.9503 14.442 25.0167C14.1831 25.0833 14 25.3354 14 25.6252V26.8752C14 28.601 15.2839 30 16.8678 30Z" fill="black"/>
<path d="M33.5614 25.0169C33.3063 24.9499 33.0395 25.0866 32.9216 25.346L32.727 25.7732C32.2449 26.8315 31.2217 27.5002 30.1438 27.5002H29.9776C29.9776 28.6517 29.5855 29.4472 29 30H31.116C32.6879 30 34 28.601 34 26.8753V25.6254C34 25.3356 33.8183 25.0835 33.5614 25.0169Z" fill="black"/>
<path fill-rule="evenodd" clip-rule="evenodd" d="M23.9793 25C21.2337 25 19 26.6148 19 28.6C19 30.7147 21.517 31 23.9793 31C26.4415 31 29 30.7147 29 28.6C29 26.6148 26.7248 25 23.9793 25ZM23.3568 28.6C23.3568 28.9316 23.0784 29.2 22.7344 29.2C22.3905 29.2 22.112 28.9316 22.112 28.6V27.4C22.112 27.0684 22.3905 26.8 22.7344 26.8C23.0784 26.8 23.3568 27.0684 23.3568 27.4V28.6ZM25.2656 29.2C25.6095 29.2 25.888 28.9316 25.888 28.6V27.4C25.888 27.0684 25.6095 26.8 25.2656 26.8C24.9216 26.8 24.6432 27.0684 24.6432 27.4V28.6C24.6432 28.9316 24.9216 29.2 25.2656 29.2Z" fill="black"/>
<path fill-rule="evenodd" clip-rule="evenodd" d="M29.3976 27C30.0507 27 30.6381 26.6099 30.9298 25.9826L31 25.8321C30.7983 23.1277 29.7067 20.2788 28.0444 18.3496C25.3447 15.2168 21.6553 15.2168 18.9556 18.3496C17.2933 20.2788 16.2015 23.1277 16 25.8321L16.0701 25.9826C16.3619 26.6099 16.9493 27 17.6024 27H17.9719C18.6106 24.8888 20.8275 23.3184 23.481 23.3184C26.1343 23.3184 28.3892 24.8888 29.0279 27H29.3976ZM20.0539 22.0911C19.7384 22.0911 19.4827 21.8165 19.4827 21.4775C19.4827 21.1386 19.7384 20.8639 20.0539 20.8639C20.3694 20.8639 20.6251 21.1386 20.6251 21.4775C20.6251 21.8165 20.3694 22.0911 20.0539 22.0911ZM26.3749 21.4775C26.3749 21.8165 26.6306 22.0911 26.9461 22.0911C27.2616 22.0911 27.5173 21.8165 27.5173 21.4775C27.5173 21.1386 27.2616 20.8639 26.9461 20.8639C26.6306 20.8639 26.3749 21.1386 26.3749 21.4775Z" fill="black"/>
</svg>
